<svg width="20" height="18" viewBox="0 0 20 18" fill="none" xmlns="http://www.w3.org/2000/svg">
<path fill-rule="evenodd" clip-rule="evenodd" d="M9.65537 16.9236C9.76596 16.8134 9.8537 16.6826 9.91357 16.5385C9.97343 16.3944 10.0042 16.2399 10.0042 16.0839C10.0042 15.9279 9.97343 15.7734 9.91357 15.6294C9.8537 15.4853 9.76596 15.3544 9.65537 15.2442L3.36875 8.9679L9.65537 2.69157C9.76578 2.5813 9.85336 2.45039 9.91312 2.30632C9.97287 2.16225 10.0036 2.00783 10.0036 1.85188C10.0036 1.69594 9.97287 1.54152 9.91312 1.39745C9.85336 1.25337 9.76578 1.12246 9.65537 1.01219C9.54496 0.901924 9.41389 0.814453 9.26963 0.754775C9.12538 0.695098 8.97076 0.664383 8.81462 0.664383C8.65848 0.664383 8.50387 0.695098 8.35961 0.754775C8.21536 0.814453 8.08428 0.901924 7.97387 1.01219L0.848873 8.12821C0.738285 8.23838 0.650545 8.36925 0.59068 8.51334C0.530815 8.65743 0.5 8.8119 0.5 8.9679C0.5 9.1239 0.530815 9.27837 0.59068 9.42245C0.650545 9.56654 0.738285 9.69742 0.848873 9.80759L7.97387 16.9236C8.08418 17.034 8.21522 17.1217 8.35949 17.1815C8.50376 17.2413 8.65843 17.272 8.81462 17.272C8.97082 17.272 9.12548 17.2413 9.26975 17.1815C9.41402 17.1217 9.54506 17.034 9.65537 16.9236V16.9236Z" fill="white"/>
<path fill-rule="evenodd" clip-rule="evenodd" d="M1.6897 8.9679C1.6897 9.28244 1.81481 9.58411 2.03751 9.80653C2.26021 10.0289 2.56225 10.1539 2.8772 10.1539L18.3147 10.1539C18.6296 10.1539 18.9317 10.0289 19.1544 9.80653C19.3771 9.58411 19.5022 9.28244 19.5022 8.9679C19.5022 8.65335 19.3771 8.35168 19.1544 8.12927C18.9317 7.90685 18.6296 7.78189 18.3147 7.78189L2.8772 7.78189C2.56225 7.78189 2.26021 7.90685 2.03751 8.12927C1.81481 8.35168 1.6897 8.65335 1.6897 8.9679Z" fill="white"/>
</svg>
