<svg width="20" height="18" viewBox="0 0 20 18" fill="none" xmlns="http://www.w3.org/2000/svg">
<path fill-rule="evenodd" clip-rule="evenodd" d="M10.3468 1.0128C10.2362 1.12297 10.1485 1.25385 10.0886 1.39793C10.0288 1.54202 9.99795 1.69649 9.99795 1.85249C9.99795 2.00849 10.0288 2.16296 10.0886 2.30705C10.1485 2.45113 10.2362 2.58201 10.3468 2.69218L16.6335 8.9685L10.3468 15.2448C10.2364 15.3551 10.1488 15.486 10.0891 15.6301C10.0293 15.7742 9.99858 15.9286 9.99858 16.0845C9.99858 16.2405 10.0293 16.3949 10.0891 16.539C10.1488 16.683 10.2364 16.8139 10.3468 16.9242C10.4572 17.0345 10.5883 17.1219 10.7326 17.1816C10.8768 17.2413 11.0314 17.272 11.1876 17.272C11.3437 17.272 11.4983 17.2413 11.6426 17.1816C11.7868 17.1219 11.9179 17.0345 12.0283 16.9242L19.1533 9.80819C19.2639 9.69802 19.3517 9.56715 19.4115 9.42306C19.4714 9.27897 19.5022 9.1245 19.5022 8.9685C19.5022 8.8125 19.4714 8.65804 19.4115 8.51395C19.3517 8.36986 19.2639 8.23898 19.1533 8.12881L12.0283 1.0128C11.918 0.902352 11.787 0.814723 11.6427 0.754933C11.4984 0.695143 11.3438 0.664368 11.1876 0.664368C11.0314 0.664368 10.8767 0.695143 10.7324 0.754933C10.5882 0.814723 10.4571 0.902352 10.3468 1.0128Z" fill="white"/>
<path fill-rule="evenodd" clip-rule="evenodd" d="M18.3125 8.9685C18.3125 8.65396 18.1874 8.35229 17.9647 8.12987C17.742 7.90745 17.4399 7.7825 17.125 7.7825H1.6875C1.37255 7.7825 1.07051 7.90745 0.847809 8.12987C0.625111 8.35229 0.5 8.65396 0.5 8.9685C0.5 9.28305 0.625111 9.58472 0.847809 9.80714C1.07051 10.0296 1.37255 10.1545 1.6875 10.1545H17.125C17.4399 10.1545 17.742 10.0296 17.9647 9.80714C18.1874 9.58472 18.3125 9.28305 18.3125 8.9685Z" fill="white"/>
</svg>
