<svg width="18" height="19" viewBox="0 0 18 19" fill="none" xmlns="http://www.w3.org/2000/svg">
<path d="M14.712 5.62929L14.7225 5.61654L11.7225 3.18654L10.7775 4.35204L12.3278 5.60754C11.9432 5.84123 11.6378 6.18522 11.4514 6.59479C11.2649 7.00435 11.206 7.46054 11.2823 7.90404C11.3948 8.57829 11.859 9.16104 12.4598 9.48729C13.131 9.85254 13.7197 9.81879 14.2432 9.63279L14.232 14.2693C14.2329 14.3935 14.2028 14.5159 14.1445 14.6256C14.0862 14.7352 14.0014 14.8286 13.8979 14.8972C13.7944 14.9659 13.6755 15.0076 13.5518 15.0187C13.4281 15.0298 13.3036 15.0099 13.1895 14.9608C13.1002 14.9226 13.0191 14.8673 12.951 14.798C12.8817 14.7286 12.8267 14.6461 12.7893 14.5554C12.7518 14.4647 12.7326 14.3674 12.7327 14.2693L12.75 12.7693C12.7508 12.4741 12.693 12.1816 12.5801 11.9089C12.4672 11.6361 12.3014 11.3884 12.0922 11.18C11.8833 10.9706 11.6351 10.8045 11.3619 10.6911C11.0887 10.5777 10.7958 10.5194 10.5 10.5193H9.75V4.51929C9.75 4.12146 9.59196 3.73993 9.31066 3.45863C9.02936 3.17732 8.64782 3.01929 8.25 3.01929H3C2.60218 3.01929 2.22064 3.17732 1.93934 3.45863C1.65804 3.73993 1.5 4.12146 1.5 4.51929V15.0193C1.5 15.4171 1.65804 15.7986 1.93934 16.0799C2.22064 16.3613 2.60218 16.5193 3 16.5193H8.25C8.64782 16.5193 9.02936 16.3613 9.31066 16.0799C9.59196 15.7986 9.75 15.4171 9.75 15.0193V12.0193H10.5C10.602 12.0193 10.7002 12.0395 10.7933 12.0778C10.9717 12.1559 11.114 12.2988 11.1915 12.4775C11.2304 12.5699 11.2503 12.6691 11.25 12.7693L11.232 14.2693C11.232 14.5738 11.2913 14.8685 11.409 15.1453C11.5223 15.4145 11.685 15.6553 11.8897 15.8585C12.0979 16.0689 12.346 16.2357 12.6194 16.3492C12.8928 16.4626 13.186 16.5205 13.482 16.5193C13.7865 16.5193 14.0805 16.4608 14.358 16.3423C14.6265 16.2298 14.868 16.067 15.0712 15.8615C15.2812 15.653 15.4477 15.4049 15.5611 15.1316C15.6746 14.8583 15.7326 14.5652 15.732 14.2693L15.75 7.51929C15.7493 7.1425 15.6538 6.77195 15.4724 6.44169C15.291 6.11144 15.0296 5.83207 14.712 5.62929ZM8.25 6.76929H3V4.51929H8.25V6.76929ZM13.5 8.26929C13.3011 8.26929 13.1103 8.19027 12.9697 8.04962C12.829 7.90896 12.75 7.7182 12.75 7.51929C12.75 7.32037 12.829 7.12961 12.9697 6.98896C13.1103 6.8483 13.3011 6.76929 13.5 6.76929C13.6989 6.76929 13.8897 6.8483 14.0303 6.98896C14.171 7.12961 14.25 7.32037 14.25 7.51929C14.25 7.7182 14.171 7.90896 14.0303 8.04962C13.8897 8.19027 13.6989 8.26929 13.5 8.26929Z" fill="#F1761D"/>
</svg>
