<svg width="18" height="19" viewBox="0 0 18 19" fill="none" xmlns="http://www.w3.org/2000/svg">
<path d="M15 3.01929H4.5C3.675 3.01929 3 3.69429 3 4.51929V10.5193C3 12.1768 4.3425 13.5193 6 13.5193H10.5C12.1575 13.5193 13.5 12.1768 13.5 10.5193V8.26929H15C15.825 8.26929 16.5 7.59429 16.5 6.76929V4.51929C16.5 3.69429 15.825 3.01929 15 3.01929ZM15 6.76929H13.5V4.51929H15V6.76929ZM2.25 16.5193H14.25C14.6625 16.5193 15 16.1818 15 15.7693C15 15.3568 14.6625 15.0193 14.25 15.0193H2.25C1.8375 15.0193 1.5 15.3568 1.5 15.7693C1.5 16.1818 1.8375 16.5193 2.25 16.5193Z" fill="white"/>
</svg>
