<svg width="18" height="19" viewBox="0 0 18 19" fill="none" xmlns="http://www.w3.org/2000/svg">
<path d="M3 15.7693H4.5V8.26929C4.5 8.07037 4.57902 7.87961 4.71967 7.73896C4.86032 7.5983 5.05109 7.51929 5.25 7.51929H14.25V6.01929C14.25 5.82037 14.171 5.62961 14.0303 5.48896C13.8897 5.3483 13.6989 5.26929 13.5 5.26929H11.2118C11.0227 3.58629 9.6075 2.26929 7.875 2.26929C6.1425 2.26929 4.72725 3.58629 4.53825 5.26929H2.25C2.05109 5.26929 1.86032 5.3483 1.71967 5.48896C1.57902 5.62961 1.5 5.82037 1.5 6.01929V14.2693C1.5 14.6671 1.65804 15.0486 1.93934 15.3299C2.22064 15.6113 2.60218 15.7693 3 15.7693ZM7.875 3.76929C8.78025 3.76929 9.5385 4.41429 9.7125 5.26929H6.0375C6.2115 4.41429 6.96975 3.76929 7.875 3.76929Z" fill="#009FD1"/>
<path d="M15.75 9.01929H6.75C6.55109 9.01929 6.36032 9.0983 6.21967 9.23896C6.07902 9.37961 6 9.57037 6 9.76929V15.7693C6 16.1671 6.15804 16.5486 6.43934 16.8299C6.72064 17.1113 7.10218 17.2693 7.5 17.2693H15C15.3978 17.2693 15.7794 17.1113 16.0607 16.8299C16.342 16.5486 16.5 16.1671 16.5 15.7693V9.76929C16.5 9.57037 16.421 9.37961 16.2803 9.23896C16.1397 9.0983 15.9489 9.01929 15.75 9.01929ZM11.25 14.2693C9.18225 14.2693 7.5 12.587 7.5 10.5193H9C9 11.7598 10.0095 12.7693 11.25 12.7693C12.4905 12.7693 13.5 11.7598 13.5 10.5193H15C15 12.587 13.3177 14.2693 11.25 14.2693Z" fill="#009FD1"/>
</svg>
