<svg width="23" height="19" viewBox="0 0 23 19" fill="none" xmlns="http://www.w3.org/2000/svg">
<path d="M5.01786 5.62643H3.625C3.23906 5.62643 2.92857 5.93692 2.92857 6.32286V9.34072H2.23214C2.10446 9.34072 2 9.44518 2 9.57286V10.9657C2 11.0934 2.10446 11.1979 2.23214 11.1979H2.92857V14.2157C2.92857 14.6017 3.23906 14.9121 3.625 14.9121H5.01786C5.40379 14.9121 5.71429 14.6017 5.71429 14.2157V6.32286C5.71429 5.93692 5.40379 5.62643 5.01786 5.62643ZM20.3393 9.34072H19.6429V6.32286C19.6429 5.93692 19.3324 5.62643 18.9464 5.62643H17.5536C17.1676 5.62643 16.8571 5.93692 16.8571 6.32286V14.2157C16.8571 14.6017 17.1676 14.9121 17.5536 14.9121H18.9464C19.3324 14.9121 19.6429 14.6017 19.6429 14.2157V11.1979H20.3393C20.467 11.1979 20.5714 11.0934 20.5714 10.9657V9.57286C20.5714 9.44518 20.467 9.34072 20.3393 9.34072ZM15.2321 3.76929H13.8393C13.4533 3.76929 13.1429 4.07978 13.1429 4.46572V9.34072H9.42857V4.46572C9.42857 4.07978 9.11808 3.76929 8.73214 3.76929H7.33929C6.95335 3.76929 6.64286 4.07978 6.64286 4.46572V16.0729C6.64286 16.4588 6.95335 16.7693 7.33929 16.7693H8.73214C9.11808 16.7693 9.42857 16.4588 9.42857 16.0729V11.1979H13.1429V16.0729C13.1429 16.4588 13.4533 16.7693 13.8393 16.7693H15.2321C15.6181 16.7693 15.9286 16.4588 15.9286 16.0729V4.46572C15.9286 4.07978 15.6181 3.76929 15.2321 3.76929Z" fill="#F11D76"/>
</svg>
